<?xml version="1.0" encoding="UTF-8" standalone="no"?>
<svg
   xmlns:dc="http://purl.org/dc/elements/1.1/"
   xmlns:cc="http://creativecommons.org/ns#"
   xmlns:rdf="http://www.w3.org/1999/02/22-rdf-syntax-ns#"
   xmlns:svg="http://www.w3.org/2000/svg"
   xmlns="http://www.w3.org/2000/svg"
   xmlns:sodipodi="http://sodipodi.sourceforge.net/DTD/sodipodi-0.dtd"
   xmlns:inkscape="http://www.inkscape.org/namespaces/inkscape"
   viewBox="0 0 300 300"
   id="svg2"
   version="1.1"
   inkscape:version="0.48.4 r9939"
   width="100%"
   height="100%"
   sodipodi:docname="award.svg">
  <metadata
     id="metadata10">
    <rdf:RDF>
      <cc:Work
         rdf:about="">
        <dc:format>image/svg+xml</dc:format>
        <dc:type
           rdf:resource="http://purl.org/dc/dcmitype/StillImage" />
      </cc:Work>
    </rdf:RDF>
  </metadata>
  <defs
     id="defs8" />
  <sodipodi:namedview
     pagecolor="#ffffff"
     bordercolor="#666666"
     borderopacity="1"
     objecttolerance="10"
     gridtolerance="10"
     guidetolerance="10"
     inkscape:pageopacity="0"
     inkscape:pageshadow="2"
     inkscape:window-width="1295"
     inkscape:window-height="744"
     id="namedview6"
     showgrid="false"
     inkscape:zoom="0.78666667"
     inkscape:cx="22.245763"
     inkscape:cy="184.32203"
     inkscape:window-x="65"
     inkscape:window-y="24"
     inkscape:window-maximized="1"
     inkscape:current-layer="svg2" />
  <path
     d="M299.9,47.8c0-1.9-0.1-3.5-0.1-4.9h-54.1C246.7,19.7,246,0,246,0s-64,0-95.5,0c-0.2,0-0.4,0-0.7,0 c-0.2,0-0.4,0-0.7,0c-31.5,0-95.7,0-95.7,0s-0.7,19.7,0.3,42.9H0.2H0v13.8c0,0.1,0,0.2,0,0.2v7.4h0.1c0.5,17.5,3.3,40.8,15,64.8 c9.9,20.3,24,37.3,42.2,50.5c15,10.9,32.2,18.8,51,23.5c10.9,11.6,21.6,18,31,20.6v23.9c-1.3,7.1-9.5,31.1-66.1,31.1h-8.9V300h171.4 v-21.4h-8.8c-66.5,0-66.2-33-66.2-33v-21.9c9.4-2.6,19.9-9,30.7-20.5c19-4.7,36.2-12.6,51.3-23.6c18.1-13.2,32.3-30.2,42.2-50.5 C300.8,96.4,300.2,64.8,299.9,47.8z M34.3,119.7c-9.7-19.9-12.2-40-12.8-55.4h33.8c0.6,6,1.3,11.9,2.2,17.4 c5.7,34,13.5,63.9,28.4,90.4C63.3,160.6,45.5,142.7,34.3,119.7z M265.7,119.7c-11.3,23.2-29.2,41.1-52,52.6 c14.9-26.5,22.6-56.6,28.4-90.6c0.9-5.5,1.7-11.4,2.2-17.4h34.2C277.9,79.7,275.3,99.8,265.7,119.7z"
     id="path4"
     style="fill:#e5c100;fill-opacity:1" />
</svg>
